<svg width="30" height="30" viewBox="0 0 30 30" fill="none" xmlns="http://www.w3.org/2000/svg">
<path d="M0 5C0 2.23858 2.23858 0 5 0H25C27.7614 0 30 2.23858 30 5V25C30 27.7614 27.7614 30 25 30H5C2.23858 30 0 27.7614 0 25V5Z" fill="url(#paint0_linear_1_16)"/>
<path d="M9.5 18.3C11.7 18.3 13.5 16.47 13.5 14.25C13.5 13.09 12.93 11.99 11.79 11.06C10.65 10.13 9.79 8.74999 9.5 7.29999C9.21 8.74999 8.36 10.14 7.21 11.06C6.06 11.98 5.5 13.1 5.5 14.25C5.5 16.47 7.3 18.3 9.5 18.3Z" stroke="white" stroke-width="1.5" stroke-linecap="round" stroke-linejoin="round"/>
<path d="M15.06 8.59999C15.7478 7.50111 16.2353 6.28903 16.5 5.01999C17 7.51999 18.5 9.91999 20.5 11.52C22.5 13.12 23.5 15.02 23.5 17.02C23.5057 18.4023 23.1009 19.7551 22.3368 20.9071C21.5727 22.059 20.4838 22.9581 19.2081 23.4905C17.9324 24.0228 16.5274 24.1644 15.1712 23.8973C13.8149 23.6301 12.5685 22.9663 11.59 21.99" stroke="white" stroke-width="1.5" stroke-linecap="round" stroke-linejoin="round"/>
<defs>
<linearGradient id="paint0_linear_1_16" x1="13.5" y1="-2" x2="13.5" y2="28" gradientUnits="userSpaceOnUse">
<stop stop-color="#EF4444"/>
<stop offset="1" stop-color="#DC2626"/>
</linearGradient>
</defs>
</svg>
